# Rhino

g Default
o object_1
v 0 0 0
v 0 80 0
v 0 180 0
v 0 280 0
v 0 400 0
v 0 80 -300
v 0 280 -300
v 0 400 -300
v 0 0 -600
v 0 80 -600
v 0 280 -600
v 0 400 -600
v 65.5 80 0
v 112.5 80 -600
v 131 0 0
v 131 80 0
v 131 180 0
v 131 280 0
v 139.8163452148438 0 50
v 139.8163452148438 80 50
v 139.8163452148438 280 50
v 200 0 50
v 200 280 0
v 200 400 0
v 200 280 -600
v 200 400 -600
v 225 0 -600
v 225 80 -600
v 225 210 -600
v 260.1836547851562 0 50
v 260.1836547851562 80 50
v 260.1836547851562 280 50
v 269 0 0
v 269 80 0
v 269 180 0
v 269 280 0
v 334.5 80 0
v 345 0 -600
v 345 80 -600
v 345 210 -600
v 400 0 0
v 400 80 0
v 400 180 0
v 400 280 0
v 400 400 0
v 400 80 -300
v 400 280 -300
v 400 400 -300
v 400 0 -600
v 400 40 -600
v 400 80 -600
v 400 280 -600
v 400 400 -600
vn 0 0 -1
vn 0 0 -1
vn 0 0 -1
vn 0 0 -1
vn 0 0 -1
vn 0 0 -1
vn 0 0 -1
vn 0 0 -1
vn 0 0 -1
vn 0 0 -1
vn 0 0 -1
vn 0 0 -1
vn 0 0 -1
vn 0 0 -1
vn 0 0 -1
vn -0.9848077297210693 0 -0.1736481785774231
vn -0.9848077297210693 0 -0.1736481785774231
vn -0.9848077297210693 0 -0.1736481785774231
vn -0.9848077297210693 0 -0.1736481785774231
vn -0.9848077297210693 0 -0.1736481785774231
vn -0.9848077297210693 0 -0.1736481785774231
vn -0.9848077297210693 0 -0.1736481785774231
vn 0.9848077297210693 0 -0.1736481785774231
vn 0.9848077297210693 0 -0.1736481785774231
vn 0.9848077297210693 0 -0.1736481785774231
vn 0.9848077297210693 0 -0.1736481785774231
vn 0.9848077297210693 0 -0.1736481785774231
vn 0.9848077297210693 0 -0.1736481785774231
vn 0.9848077297210693 0 -0.1736481785774231
vn 0 1 0
vn 0 1 0
vn 0 1 0
vn 0 1 0
vn 0 1 0
vn 0 -1 0
vn 0 -1 0
vn 0 -1 0
vn 0 -1 0
vn 0 -1 0
vn 0 -1 0
vn 0 -1 0
vn 0 -1 0
vn -1 0 0
vn -1 0 0
vn -1 0 0
vn -1 0 0
vn -1 0 0
vn -1 0 0
vn 0 0 -1
vn 0 0 -1
vn 0 0 -1
vn 0 0 -1
vn 0 0 -1
vn 0 0 -1
vn 0 0 -1
vn 0 0 -1
vn 1 0 0
vn 1 0 0
vn 1 0 0
vn 1 0 0
vn 1 0 0
vn 1 0 0
vn 0 0 1
vn 0 0 1
vn 0 0 1
vn 0 0 1
vn 0 0 1
vn 0 0 1
vn 0 0 1
vn 0 0 1
vn 0 0 1
vn 0 0 1
vn 0 0 1
vn 0 0 1
vn 0 2.220446049250313e-16 1
vn 0 2.220446049250313e-16 1
vn 0 -5.551115123125783e-17 1
vn 0 -5.551115123125783e-17 1
vn 0 -1 0
vn 0 -1 0
vn 0 -1 0
vn 0 -1 0
vn 0 -1 0
vn 0 0 -1
vn 0 0 -1
vn 0 0 -1
vn 0 0 -1
vn 0 0 -1
vn 0 0 -1
vn 0 0 -1
vn 0 0 -1
vn 0 0 -1
vn 0 0 -1
vn 0 0 -1
vn 0 0 -1
vn 0 0 -1
vn 0 0 -1
vn 1 0 0
vn 1 0 0
vn 1 0 0
vn 1 0 0
vn 1 0 0
vn 1 0 0
vn 1 0 0
vn -1 0 0
vn -1 0 0
vn -1 0 0
vn -1 0 0
vn -1 0 0
vn -1 0 0
vn -1 0 0
vn 1 0 0
vn 1 0 0
vn 1 0 0
vn 1 0 0
vn 1 0 0
vn 0 0 1
vn 0 0 1
vn 0 0 1
vn 0 0 1
vn 0 0 1
vn 0 0 1
vn 0 0 1
vn 0 0 1
vn 0 0 1
vn 0 0 1
vn -1 0 0
vn -1 0 0
vn -1 0 0
vn -1 0 0
vn -1 0 0
vn -1 0 0
f 22//5 19//2 20//1
f 30//4 22//5 31//3
f 20//1 31//3 22//5
f 33//8 34//6 37//10
f 42//7 41//9 37//10
f 33//8 37//10 41//9
f 13//15 1//12 2//11
f 15//14 13//15 16//13
f 1//12 13//15 15//14
f 36//17 35//22 32//16
f 31//20 32//16 35//22
f 30//18 31//20 34//21 33//19
f 35//22 34//21 31//20
f 17//29 21//23 20//27
f 19//24 15//26 16//28 20//27
f 21//23 17//29 18//25
f 20//27 16//28 17//29
f 15//32 19//30 22//34
f 30//31 33//33 22//34
f 15//32 22//34 33//33
f 48//39 8//36 26//42
f 8//36 12//35 26//42
f 24//41 5//37 8//36
f 48//39 45//38 24//41
f 48//39 26//42 53//40
f 24//41 8//36 48//39
f 47//48 44//43 45//45 48//47
f 52//44 47//48 48//47 53//46
f 24//54 18//53 4//51 5//49
f 45//50 44//52 36//55 24//54
f 24//54 23//56 18//53
f 24//54 36//55 23//56
f 7//62 11//57 12//59 8//61
f 4//58 7//62 8//61 5//60
f 25//68 52//63 53//65 26//67
f 11//64 25//68 26//67 12//66
f 40//78 39//77 51//69
f 29//76 14//74 28//75
f 29//76 10//70 14//74
f 52//71 25//73 29//76 40//78
f 51//69 52//71 40//78
f 11//72 29//76 25//73
f 10//70 29//76 11//72
f 21//81 18//79 23//83
f 36//80 32//82 23//83
f 21//81 23//83 32//82
f 44//85 43//90 35//89 36//84
f 35//89 43//90 37//88
f 37//88 43//90 42//87
f 34//86 35//89 37//88
f 13//95 2//91 3//97
f 4//92 18//94 17//96 3//97
f 17//96 16//93 13//95
f 13//95 3//97 17//96
f 6//104 10//98 11//100 7//102
f 3//103 2//99 6//104
f 6//104 7//102 3//103
f 7//102 4//101 3//103
f 46//111 47//109 52//107 51//105
f 43//110 46//111 42//106
f 46//111 43//110 47//109
f 47//109 43//110 44//108
f 9//114 10//112 6//116
f 2//113 1//115 6//116
f 9//114 6//116 1//115
f 14//121 9//118 27//117
f 27//117 28//119 14//121
f 9//118 14//121 10//120
f 39//124 50//126 51//122
f 49//123 50//126 38//125
f 39//124 38//125 50//126
f 41//129 42//127 46//131
f 50//132 46//131 51//128
f 49//130 41//129 50//132
f 46//131 50//132 41//129
